<?xml version="1.0" standalone="no"?>
<!DOCTYPE svg PUBLIC "-//W3C//DTD SVG 20010904//EN"
 "http://www.w3.org/TR/2001/REC-SVG-20010904/DTD/svg10.dtd">
<svg version="1.0" xmlns="http://www.w3.org/2000/svg"
 width="339.000000pt" height="417.000000pt" viewBox="0 0 339.000000 417.000000"
 preserveAspectRatio="xMidYMid meet">
<metadata>
Created by potrace 1.10, written by Peter Selinger 2001-2011
</metadata>
<g transform="translate(0.000000,417.000000) scale(0.050000,-0.050000)"
fill="#ffade5" stroke="none">
<path d="M4040 8301 c0 -48 19 -60 67 -42 36 12 36 15 4 47 -45 45 -71 43 -71
-5z"/>
<path d="M4380 8310 c0 -16 14 -30 30 -30 17 0 30 10 30 21 0 12 10 15 23 7
14 -9 18 -5 9 9 -21 34 -92 28 -92 -7z"/>
<path d="M5285 8327 c-44 -18 -27 -47 27 -47 31 0 48 10 43 24 -9 28 -35 36
-70 23z"/>
<path d="M6215 8315 c-21 -17 -26 -37 -14 -65 13 -32 16 -33 18 -6 0 18 20 36
44 40 38 5 40 9 14 31 -24 19 -37 19 -62 0z"/>
<path d="M4525 8297 c-17 -17 -18 -31 -3 -50 18 -21 27 -21 50 2 31 32 38 59
10 42 -10 -6 -22 -2 -26 10 -4 13 -15 12 -31 -4z"/>
<path d="M4640 8245 c0 -29 13 -40 50 -40 29 0 50 12 50 28 0 15 -8 27 -18 27
-10 0 -33 5 -50 12 -23 9 -32 1 -32 -27z"/>
<path d="M2820 8245 c-60 -3 -130 -16 -155 -29 -35 -18 -51 -18 -69 0 -29 29
-149 32 -166 4 -7 -11 -59 -20 -116 -21 -95 0 -113 -8 -204 -90 -74 -66 -111
-87 -144 -79 -25 6 -75 -7 -116 -30 -39 -22 -92 -40 -118 -40 -25 0 -62 -18
-82 -40 -20 -22 -48 -40 -63 -40 -15 0 -27 -8 -27 -19 0 -10 -18 -24 -39 -31
-56 -18 -160 -108 -401 -351 -202 -202 -242 -261 -344 -499 -73 -169 -120
-272 -137 -300 -11 -16 -34 -61 -51 -100 -18 -38 -45 -98 -61 -131 -16 -34
-34 -93 -39 -130 -5 -38 -18 -87 -27 -109 -72 -160 -101 -489 -53 -580 38 -71
40 -121 10 -208 -17 -48 -17 -86 1 -150 14 -47 32 -193 42 -324 21 -288 71
-635 99 -687 11 -21 20 -58 20 -81 0 -23 15 -87 33 -142 19 -59 28 -131 21
-179 -6 -45 -2 -74 8 -68 10 6 18 1 18 -11 0 -12 18 -41 40 -65 22 -23 40 -58
40 -78 0 -19 16 -44 35 -55 54 -30 23 -42 -127 -52 -265 -18 -269 -21 -260
-243 4 -102 24 -160 116 -350 61 -125 118 -258 126 -297 8 -38 45 -133 82
-210 38 -77 68 -150 68 -162 0 -12 15 -52 34 -90 19 -37 32 -86 29 -109 -3
-23 17 -60 48 -86 36 -31 49 -59 42 -87 -6 -22 -5 -35 2 -28 6 6 21 -8 34 -33
63 -129 336 -246 437 -188 81 47 142 44 128 -6 -19 -74 317 -556 591 -847 41
-44 79 -96 86 -117 6 -20 24 -37 39 -37 16 0 68 -27 117 -60 49 -33 98 -60
108 -60 11 0 31 -13 44 -29 41 -49 225 -135 266 -124 27 7 42 -1 50 -28 13
-53 54 -49 110 12 56 60 115 48 115 -23 0 -44 20 -58 67 -50 10 2 28 -5 40
-15 24 -20 174 -65 243 -74 180 -22 250 -37 250 -55 0 -11 16 -6 35 11 19 18
74 36 121 41 52 5 104 26 134 54 40 38 69 46 157 43 73 -3 115 5 132 25 13 17
72 40 131 52 59 12 137 44 174 70 36 27 93 63 126 82 33 19 110 81 170 138 61
58 149 139 197 181 48 43 95 98 105 123 11 31 33 46 66 46 27 0 56 10 63 22 8
12 44 35 81 50 38 16 68 42 68 58 0 17 36 67 80 112 44 46 80 97 80 115 0 18
32 58 70 89 84 67 86 85 15 150 -47 44 -54 66 -55 164 l0 114 -64 2 c-95 4
-98 -25 -17 -179 68 -130 71 -145 50 -213 -34 -105 -57 -123 -92 -71 -43 63
-115 40 -97 -31 7 -28 22 -57 34 -64 42 -26 -3 -99 -54 -86 -51 13 -90 -35
-90 -109 0 -37 -4 -38 -52 -13 -66 34 -108 19 -108 -39 0 -41 -37 -71 -120
-97 -24 -7 -29 6 -23 67 5 60 -2 82 -35 102 -23 15 -42 47 -42 72 0 62 -56 58
-80 -6 -22 -57 -68 -47 -50 11 6 20 3 42 -8 49 -31 19 -98 -32 -112 -85 -10
-41 -22 -47 -96 -42 -139 8 -234 -1 -234 -22 0 -11 21 -20 47 -20 26 0 72 -19
101 -42 47 -37 65 -40 132 -22 81 20 181 -14 255 -88 15 -15 37 -28 49 -28 58
0 -51 -177 -111 -179 -10 -1 -35 -24 -57 -51 -28 -36 -58 -50 -108 -50 -53 0
-86 -17 -140 -71 -54 -54 -85 -69 -134 -66 -63 4 -184 -45 -197 -80 -10 -26
-97 -49 -97 -25 0 11 17 32 38 46 59 41 57 87 -4 144 -68 63 -81 65 -63 10 8
-26 3 -49 -11 -58 -13 -8 -25 -39 -27 -68 -2 -35 -12 -49 -30 -42 -14 5 -44
10 -65 10 -22 0 -49 22 -62 50 -26 57 -52 64 -69 19 -7 -18 6 -48 32 -72 72
-68 -12 -154 -113 -115 -74 27 -212 22 -259 -11 -46 -33 -67 -23 -67 32 0 27
15 37 58 37 111 0 131 103 32 168 -59 39 -46 92 22 92 35 0 48 11 48 40 0 22
-13 40 -30 40 -16 0 -30 11 -31 25 0 14 -22 -2 -49 -35 -37 -44 -54 -54 -72
-36 -30 30 20 151 57 137 26 -10 85 85 85 138 0 47 -55 37 -81 -14 -13 -25
-56 -76 -97 -115 -112 -106 -148 -172 -121 -221 21 -41 100 -38 116 4 3 9 21
17 40 17 22 -1 25 -5 9 -16 -13 -8 -34 -41 -46 -74 -12 -33 -16 -53 -8 -45 21
21 68 -24 68 -65 0 -76 -111 -79 -184 -5 -161 164 -167 187 -76 285 l60 64
-45 57 c-53 67 -105 75 -135 19 -12 -22 -37 -40 -56 -40 -44 0 -111 -121 -111
-201 0 -43 -17 -76 -58 -110 -74 -62 -80 -62 -112 11 -18 41 -41 60 -71 60
-27 0 -89 42 -155 105 -60 58 -161 149 -225 202 -139 119 -217 236 -227 343
-9 108 -71 236 -134 277 -28 19 -51 44 -51 56 0 11 -28 56 -62 99 -34 43 -54
78 -45 79 9 0 1 9 -18 21 -19 11 -35 37 -35 59 0 46 -125 37 -174 -12 -34 -34
-154 -58 -200 -40 -30 11 -28 16 15 38 65 32 69 71 14 140 l-46 57 -50 -42
c-40 -34 -44 -45 -20 -60 15 -10 30 -33 33 -50 6 -46 -58 -40 -87 8 -15 24
-17 40 -5 40 48 0 14 62 -48 88 -79 33 -105 67 -74 98 38 38 25 94 -40 170
-71 86 -126 228 -176 454 -19 88 -49 183 -67 210 -18 28 -39 91 -47 140 -19
129 -141 300 -213 300 -11 0 -9 13 5 30 15 18 59 30 111 30 48 0 109 9 137 19
46 18 52 13 75 -50 14 -39 35 -66 47 -62 12 5 39 -4 60 -19 30 -22 41 -23 54
-3 11 17 16 13 18 -15 4 -65 -4 -119 -22 -137 -21 -23 -3 -586 22 -665 21 -68
119 -188 153 -188 12 0 28 -18 35 -40 13 -40 41 -50 125 -42 25 2 46 -8 48
-22 1 -14 4 -50 5 -79 2 -29 15 -67 30 -85 15 -18 27 -55 27 -83 0 -44 7 -49
67 -45 72 4 97 61 38 83 -20 8 -30 39 -30 93 0 64 -13 94 -60 140 -33 32 -60
72 -60 89 0 17 -8 31 -17 31 -57 0 -166 139 -174 222 -27 274 -32 298 -67 298
-30 0 -35 25 -40 185 -2 102 -13 194 -23 204 -10 10 -19 35 -19 55 0 20 -9 36
-20 36 -39 0 -100 70 -100 114 0 26 8 46 19 46 29 0 47 82 24 105 -15 15 -29
15 -47 0 -21 -17 -25 -2 -19 77 4 55 -2 110 -13 124 -40 49 -106 341 -94 414
9 55 2 84 -29 124 -44 57 -53 106 -21 126 31 19 23 75 -20 130 -57 73 -53 137
7 125 44 -8 61 3 128 83 33 40 33 114 -1 101 -14 -5 -42 2 -62 17 -40 30 -28
55 76 155 35 34 32 114 -3 92 -9 -5 -33 3 -54 18 -41 31 -13 145 29 119 12 -7
20 13 20 49 0 60 -25 81 -50 41 -19 -31 -64 -24 -78 12 -14 36 42 168 72 168
10 0 16 25 12 55 -3 31 -17 53 -31 50 -18 -4 -25 28 -25 105 0 60 9 110 20
110 11 0 20 10 20 21 0 12 -9 16 -20 9 -27 -16 -25 -8 10 77 17 39 30 99 30
132 0 33 15 94 33 135 193 450 404 744 586 821 38 16 79 41 90 55 13 16 84 29
185 35 90 4 176 18 190 29 14 11 53 27 85 35 33 7 93 45 135 82 42 38 91 69
109 69 18 0 62 22 97 49 37 28 116 58 192 72 70 13 142 31 158 41 27 16 64 33
160 71 32 13 198 23 500 29 292 6 792 -179 999 -370 92 -84 264 -259 309 -312
39 -47 130 -120 150 -120 9 0 40 -48 68 -107 28 -59 65 -113 82 -120 19 -7 32
-35 32 -70 0 -34 13 -64 30 -70 17 -7 30 -22 30 -34 0 -13 18 -46 40 -74 22
-28 40 -65 40 -83 0 -18 17 -43 38 -56 20 -13 43 -55 50 -95 8 -41 26 -71 41
-71 32 0 91 -53 91 -81 0 -11 -14 -19 -32 -19 -21 0 -28 -11 -20 -32 7 -17 12
-35 12 -40 0 -4 14 -8 30 -8 17 0 30 -13 30 -29 0 -16 11 -36 25 -45 14 -9 26
-27 27 -41 1 -14 3 -38 5 -55 3 -34 103 -43 103 -9 0 12 -15 67 -33 122 -21
63 -26 106 -13 119 35 35 79 -49 115 -222 60 -291 60 -294 13 -309 -43 -14
-59 -51 -21 -51 12 0 17 -47 13 -120 -4 -66 1 -120 10 -120 16 0 21 41 23 190
3 194 68 102 71 -101 1 -73 14 -137 33 -165 17 -24 26 -44 19 -44 -7 0 13 -23
44 -50 l56 -50 -45 -38 c-65 -55 -79 -189 -35 -325 63 -191 85 -171 92 80 6
250 10 259 116 306 50 22 106 48 122 58 17 9 69 37 117 61 47 24 91 55 97 71
6 15 23 27 38 27 15 0 28 8 28 18 0 21 -111 18 -132 -3 -8 -8 -35 -15 -60 -15
-25 0 -59 -14 -77 -31 -17 -18 -31 -25 -31 -17 0 8 -23 -6 -50 -32 -30 -28
-80 -50 -125 -53 -50 -4 -66 0 -46 12 24 15 24 37 -5 157 -19 77 -34 163 -34
191 0 29 -18 82 -40 118 -22 36 -40 90 -40 121 0 30 -13 88 -30 127 -16 40
-30 100 -31 134 0 35 -13 80 -30 102 -16 21 -29 72 -29 113 0 42 -13 89 -30
105 -17 17 -30 66 -30 109 0 52 -10 84 -30 91 -16 7 -30 29 -30 50 0 21 -13
49 -30 63 -16 14 -30 34 -30 44 0 54 -122 276 -151 276 -18 0 -37 18 -43 40
-6 22 -20 40 -31 40 -11 0 -15 24 -10 53 8 39 -3 65 -40 100 -28 26 -72 76
-98 112 -98 133 -339 361 -417 395 -44 19 -97 54 -118 77 -21 24 -49 43 -63
43 -14 0 -56 32 -95 70 -39 39 -77 70 -85 70 -8 0 -25 14 -38 32 -13 18 -65
37 -117 43 -78 8 -107 24 -168 92 -68 75 -80 81 -169 77 -76 -3 -100 4 -124
38 -22 31 -62 45 -163 58 -73 9 -148 30 -166 47 -35 31 -247 48 -464 38z m270
-201 c44 -4 85 -15 91 -25 6 -10 44 -21 85 -24 41 -3 74 -12 74 -20 0 -8 31
-15 69 -15 114 0 172 -36 150 -93 -20 -52 14 -66 57 -23 19 19 24 17 24 -8 0
-52 -104 -83 -208 -61 -50 11 -115 16 -146 11 l-56 -8 50 30 c67 41 -72 45
-216 7 l-94 -25 90 -12 c70 -9 50 -13 -86 -15 -103 -2 -198 -14 -230 -30 -30
-15 -85 -28 -122 -29 -37 -1 -75 -12 -83 -25 -8 -13 -22 -19 -32 -13 -9 5 -51
-6 -92 -26 -41 -20 -80 -28 -86 -18 -6 10 -21 18 -34 18 -12 0 -16 -6 -8 -13
18 -18 -62 -72 -86 -58 -10 7 -29 -6 -41 -28 -13 -25 -43 -42 -76 -43 l-54 -2
50 -16 c48 -15 48 -16 -13 -18 -34 -1 -67 -14 -73 -30 -16 -39 -189 -96 -201
-65 -6 12 -11 8 -11 -10 -1 -19 9 -39 23 -45 14 -6 -4 -6 -40 0 -40 7 -65 3
-65 -10 0 -12 -32 -22 -71 -22 -101 0 -256 -41 -275 -73 -9 -15 -34 -27 -56
-27 -21 0 -44 -13 -51 -30 -6 -16 -28 -30 -48 -30 -20 0 -49 -18 -65 -40 -18
-26 -47 -38 -81 -36 -69 6 -67 28 7 66 33 17 58 42 55 55 -3 14 4 24 15 22 11
-2 21 20 23 49 2 28 19 64 39 78 20 14 29 26 21 26 -9 0 10 21 40 48 51 44
121 51 96 10 -6 -10 -3 -18 6 -18 34 0 45 26 22 53 -15 19 -16 27 0 27 12 0
17 14 10 30 -6 17 0 30 15 30 15 0 47 24 73 53 30 36 65 54 106 54 36 0 50 6
36 15 -46 28 44 98 187 145 18 6 36 2 40 -8 4 -12 31 -12 74 0 37 11 74 16 83
11 8 -5 19 9 25 32 6 23 21 36 33 29 11 -7 21 -3 21 9 0 12 32 35 71 52 39 16
66 37 60 46 -6 10 3 29 19 42 17 14 30 18 30 10 0 -8 13 -4 28 9 22 17 32 17
43 -1 10 -16 58 -20 158 -11 83 7 152 4 163 -7 12 -12 54 -13 109 -2 49 10 76
20 59 22 -16 3 15 16 70 29 55 13 105 19 110 13 6 -7 46 -15 90 -18z m796
-255 c138 -70 131 -86 -36 -80 -146 5 -227 35 -178 67 12 8 33 35 47 61 21 40
28 43 58 19 18 -16 67 -46 109 -67z m230 -134 c-3 -25 7 -56 24 -68 16 -13 23
-30 15 -38 -8 -8 -29 -2 -47 13 -18 15 -47 28 -64 28 -17 0 -34 12 -39 26 -7
19 5 22 43 13 44 -11 52 -7 52 29 0 23 5 42 11 42 7 0 9 -20 5 -45z m629 -350
c28 -30 83 -82 122 -115 75 -64 89 -90 47 -90 -29 0 -274 216 -274 242 0 36
55 16 105 -37z m227 -350 c20 -63 110 -195 133 -195 36 0 155 -147 155 -193 0
-25 21 -85 47 -134 27 -49 53 -115 59 -146 6 -31 26 -100 45 -152 39 -111 25
-191 -22 -126 -16 21 -29 53 -29 70 0 17 -20 54 -45 82 -80 89 -121 195 -128
324 -6 132 -61 208 -182 256 -31 12 -45 35 -45 70 0 29 -18 76 -40 104 -50 63
-51 85 -1 85 22 0 44 -19 53 -45z m-4343 -2119 c-19 -111 -42 -103 -47 16 -4
103 -1 110 27 82 22 -22 28 -52 20 -98z m1123 -3371 c44 -58 34 -99 -12 -50
-39 42 -53 85 -27 85 7 0 25 -16 39 -35z m3148 -395 c0 -51 -46 -70 -71 -29
-19 31 5 79 40 79 20 0 31 -18 31 -50z m-1880 -385 c0 -16 -18 -52 -40 -80
-22 -28 -40 -75 -40 -106 0 -48 -49 -96 -74 -72 -34 34 -27 156 12 204 23 30
42 70 42 88 0 19 6 40 13 48 19 18 87 -46 87 -82z"/>
<path d="M4173 8247 c-34 -34 -6 -65 71 -78 46 -7 96 -26 110 -41 15 -14 41
-21 57 -15 40 15 -19 87 -70 87 -18 0 -51 13 -72 29 -43 32 -75 38 -96 18z"/>
<path d="M4803 8239 c-38 -16 -43 -25 -24 -48 31 -37 81 -18 81 31 0 21 -2 37
-5 37 -3 -1 -26 -10 -52 -20z"/>
<path d="M6160 8220 c0 -22 -13 -40 -30 -40 -16 0 -30 -8 -30 -19 0 -10 18
-17 40 -16 35 3 65 115 30 115 -5 0 -10 -18 -10 -40z"/>
<path d="M4931 8221 c-23 -36 120 -73 194 -49 57 18 19 48 -43 35 -32 -6 -76
-1 -98 11 -25 13 -46 15 -53 3z"/>
<path d="M5260 8220 c0 -11 -13 -20 -30 -20 -16 0 -30 -13 -30 -30 0 -17 18
-30 40 -30 29 0 40 13 40 50 0 28 -4 50 -10 50 -5 0 -10 -9 -10 -20z"/>
<path d="M4476 8147 c-15 -29 -7 -77 14 -86 27 -11 39 58 14 83 -11 11 -23 12
-28 3z"/>
<path d="M4615 8102 c-17 -63 14 -88 53 -44 34 37 34 40 -4 60 -32 17 -41 14
-49 -16z"/>
<path d="M5010 8060 c-16 -26 40 -48 81 -32 40 15 18 52 -31 52 -21 0 -43 -9
-50 -20z"/>
<path d="M5300 8061 c-22 -15 -24 -25 -7 -42 28 -28 67 -9 67 32 0 33 -18 36
-60 10z"/>
<path d="M6473 8067 c-7 -8 -13 -35 -13 -60 0 -28 -12 -47 -30 -47 -16 0 -30
-13 -30 -30 0 -64 78 9 79 74 1 19 17 43 36 54 30 18 30 21 3 21 -17 1 -37 -5
-45 -12z"/>
<path d="M4573 7966 c-7 -7 -13 -30 -13 -51 0 -46 44 -37 51 11 6 37 -18 61
-38 40z"/>
<path d="M4700 7916 c1 -49 5 -58 20 -36 10 17 28 30 39 30 24 0 29 40 6 40
-8 0 -26 8 -40 16 -18 12 -25 -2 -25 -50z"/>
<path d="M5132 7930 c-34 -26 -35 -30 -5 -42 48 -18 94 5 81 41 -15 38 -27 38
-76 1z"/>
<path d="M4820 7909 c0 -16 18 -29 40 -29 22 0 40 12 40 26 0 14 -18 27 -40
29 -23 1 -40 -10 -40 -26z"/>
<path d="M4975 7926 c-47 -12 -45 -46 3 -46 57 0 103 22 91 42 -12 19 -35 20
-94 4z"/>
<path d="M5235 7812 c-46 -35 -44 -52 5 -52 27 0 40 13 40 40 0 47 0 47 -45
12z"/>
<path d="M5050 7801 c-22 -9 -47 -12 -55 -7 -25 14 -17 -31 9 -46 13 -8 27 -4
31 8 5 13 35 24 67 24 32 0 58 9 58 20 0 23 -53 24 -110 1z"/>
<path d="M4780 7760 c0 -22 7 -40 15 -40 9 0 27 18 40 40 22 35 20 40 -15 40
-27 0 -40 -13 -40 -40z"/>
<path d="M4860 7637 c0 -33 70 -53 94 -27 19 21 12 28 -35 34 -33 5 -59 2 -59
-7z"/>
<path d="M5580 7645 c17 -6 41 -26 53 -43 13 -18 30 -25 38 -17 24 23 -32 75
-78 73 -30 -1 -34 -5 -13 -13z"/>
<path d="M5109 7542 c-28 -27 -4 -55 41 -47 60 12 68 64 9 59 -23 -1 -45 -7
-50 -12z"/>
<path d="M6345 7446 c-31 -11 -33 -106 -3 -106 12 0 18 12 12 28 -6 15 -1 37
11 49 26 26 16 41 -20 29z"/>
<path d="M3025 7210 c-37 -42 -31 -50 35 -50 55 0 58 3 35 40 -29 47 -37 48
-70 10z"/>
<path d="M2793 7063 c-45 -49 -42 -63 16 -63 28 0 58 16 70 37 36 68 -30 88
-86 26z"/>
<path d="M3645 7028 c-19 -20 -17 -33 8 -59 31 -30 35 -30 51 -1 26 46 -25 97
-59 60z"/>
<path d="M1866 6924 c-35 -22 -68 -120 -45 -135 34 -21 94 11 106 57 13 50
-25 100 -61 78z"/>
<path d="M3133 6926 c-34 -33 -10 -82 44 -90 48 -7 56 -2 48 29 -11 40 -72 81
-92 61z"/>
<path d="M5501 6921 c-32 -20 21 -101 66 -101 11 0 4 13 -17 28 -33 23 -34 33
-12 60 29 35 9 42 -37 13z"/>
<path d="M2165 6890 c-14 -16 -25 -42 -25 -58 0 -17 -14 -38 -32 -48 -29 -16
-29 -19 3 -31 42 -17 50 -10 54 45 2 23 13 42 25 42 12 0 21 18 21 40 0 47
-11 49 -46 10z"/>
<path d="M3665 6857 c-34 -34 -31 -90 6 -105 39 -14 60 37 36 90 -14 32 -22
35 -42 15z"/>
<path d="M2480 6821 c0 -10 9 -24 19 -30 11 -7 14 -25 9 -40 -6 -15 1 -49 15
-74 14 -26 23 -56 20 -67 -3 -10 18 6 46 37 57 61 47 99 -32 124 -24 7 -35 24
-29 41 6 16 -2 28 -19 28 -16 0 -29 -8 -29 -19z"/>
<path d="M6544 6770 c-37 -25 -59 -51 -49 -57 18 -11 138 81 123 95 -4 4 -38
-13 -74 -38z"/>
<path d="M6280 6744 c0 -28 -13 -45 -35 -46 -21 -1 -25 -5 -10 -11 14 -6 25
-25 25 -44 1 -18 16 -3 33 33 25 50 27 72 10 89 -17 17 -23 12 -23 -21z"/>
<path d="M3200 6720 c0 -11 18 -54 40 -94 22 -43 32 -82 22 -92 -24 -24 -5
-89 30 -102 15 -6 28 -2 28 9 0 10 12 19 26 19 14 0 27 18 29 40 1 23 -6 35
-17 29 -39 -24 -80 35 -67 94 9 44 5 57 -19 57 -18 0 -32 14 -32 30 0 17 -9
30 -20 30 -11 0 -20 -9 -20 -20z"/>
<path d="M6111 6581 c-16 -26 19 -44 57 -29 19 7 32 2 32 -13 0 -14 5 -21 10
-15 6 6 5 25 -2 43 -13 35 -78 45 -97 14z"/>
<path d="M6322 6537 c-4 -61 19 -93 59 -82 50 13 50 45 0 45 -21 0 -42 16 -47
35 -8 31 -10 31 -12 2z"/>
<path d="M2045 6481 c-25 -32 -45 -67 -45 -79 0 -12 -11 -22 -25 -22 -17 -1
-16 -6 4 -19 21 -13 43 -4 78 30 27 27 55 49 64 49 8 0 13 22 12 50 -4 65 -32
62 -88 -9z"/>
<path d="M1540 6492 c0 -33 50 -30 84 4 19 19 12 24 -30 24 -33 0 -54 -11 -54
-28z"/>
<path d="M1280 6453 c0 -39 8 -47 40 -39 22 6 40 18 40 28 0 9 -18 26 -40 38
-35 19 -40 15 -40 -27z"/>
<path d="M1472 6391 c-13 -53 2 -111 30 -111 23 0 23 134 0 149 -10 6 -23 -11
-30 -38z"/>
<path d="M1694 6386 c-34 -58 -7 -186 40 -186 45 0 48 6 42 95 -6 89 -52 141
-82 91z"/>
<path d="M4765 6307 c-27 -11 -35 -67 -9 -67 21 0 64 43 64 64 0 17 -16 18
-55 3z"/>
<path d="M3081 6241 c-28 -51 -26 -78 6 -111 34 -34 72 -10 83 52 13 68 -59
116 -89 59z"/>
<path d="M1180 6162 c0 -21 -9 -42 -19 -45 -11 -4 -23 -40 -27 -81 -8 -67 -5
-72 29 -54 20 10 37 36 37 56 0 20 6 65 13 100 8 40 4 62 -10 62 -13 0 -23
-17 -23 -38z"/>
<path d="M1505 6161 c-41 -67 7 -120 110 -121 38 0 30 89 -12 127 -47 43 -68
42 -98 -6z"/>
<path d="M2640 6130 c0 -84 40 -93 88 -21 46 71 40 91 -28 91 -55 0 -60 -6
-60 -70z"/>
<path d="M3193 6087 c-25 -26 -13 -47 27 -47 22 0 40 -10 40 -23 0 -13 5 -19
11 -12 13 12 -33 95 -52 95 -7 0 -18 -6 -26 -13z"/>
<path d="M2480 6020 c0 -11 13 -20 28 -20 16 0 33 -11 38 -25 5 -14 15 -19 24
-11 26 25 -7 76 -49 76 -23 0 -41 -9 -41 -20z"/>
<path d="M1619 5995 c-21 -69 -15 -90 21 -81 46 12 55 86 10 86 -16 0 -31 -2
-31 -5z"/>
<path d="M6017 5985 c-4 -10 -47 -42 -97 -71 -53 -32 -75 -54 -54 -54 20 0 47
9 60 20 13 11 47 37 74 58 28 21 44 44 37 52 -7 7 -16 5 -20 -5z"/>
<path d="M3240 5930 c0 -28 9 -50 20 -50 11 0 20 -13 20 -29 0 -25 16 -35 88
-56 11 -3 22 33 26 80 3 47 0 86 -9 86 -8 1 -44 6 -80 10 -58 8 -65 3 -65 -41z"/>
<path d="M2608 5888 c7 -17 12 -42 12 -55 1 -15 7 -13 18 4 12 19 21 21 31 5
20 -33 48 -27 43 10 -5 35 -48 67 -89 68 -17 0 -23 -12 -15 -32z"/>
<path d="M6691 5770 c-21 -16 -31 -36 -23 -44 8 -8 22 -3 31 12 10 16 31 22
51 15 21 -8 30 -4 25 11 -12 36 -41 38 -84 6z"/>
<path d="M3128 5593 c-7 -18 -25 -33 -41 -33 -19 0 -24 -15 -17 -45 5 -25 24
-103 41 -175 18 -71 32 -143 32 -160 1 -71 82 -330 117 -374 27 -34 35 -67 27
-107 -22 -108 156 -228 229 -155 33 33 30 57 -6 43 -16 -6 -30 -1 -30 11 0 12
-13 22 -30 22 -37 0 -39 53 -5 127 16 36 37 51 59 46 19 -5 37 0 41 11 3 11
30 13 61 5 l56 -14 -63 -56 c-92 -82 -69 -144 47 -126 46 6 93 20 103 30 26
24 91 21 91 -4 0 -50 -173 -193 -236 -195 -58 -1 -164 -82 -164 -124 0 -40 46
-138 69 -147 41 -15 191 67 191 104 0 39 220 283 255 283 14 0 25 8 25 17 0
47 392 168 542 167 75 0 198 -65 266 -141 75 -84 101 12 26 99 -60 70 -275
181 -344 178 -143 -9 -189 -3 -251 28 -113 58 -170 66 -369 51 -33 -2 -78 -3
-100 -1 -121 7 -274 -12 -289 -36 -34 -55 -87 -7 -75 67 7 46 3 71 -16 78 -14
6 -32 37 -39 70 -8 33 -31 80 -52 104 -22 25 -40 68 -40 97 -5 180 -76 344
-111 255z m772 -721 c0 -40 -33 -72 -72 -72 -53 0 -61 19 -24 56 22 22 96 34
96 16z"/>
<path d="M3860 5510 c0 -56 29 -67 48 -18 19 50 14 68 -18 68 -19 0 -30 -19
-30 -50z"/>
<path d="M2105 5506 c-14 -5 -25 -22 -25 -38 0 -15 -16 -28 -35 -28 -30 -1
-31 -3 -5 -20 50 -33 75 -23 86 35 12 63 12 62 -21 51z"/>
<path d="M2673 5472 c-13 -49 -5 -66 57 -123 72 -66 94 -141 62 -212 -11 -25
-3 -36 31 -43 41 -7 42 -9 6 -11 -30 -2 -54 -32 -85 -103 -58 -132 -58 -169
-2 -139 48 26 82 6 37 -21 -18 -12 -29 -51 -29 -104 0 -80 -4 -86 -58 -93 -43
-5 -51 -11 -31 -24 22 -13 20 -20 -12 -31 -21 -8 -46 -27 -55 -41 -9 -15 -34
-27 -56 -27 -21 0 -44 -13 -51 -30 -6 -16 -24 -30 -39 -30 -15 0 -28 -8 -28
-18 0 -27 -78 -41 -93 -17 -8 12 15 46 51 76 84 70 38 93 -71 36 -50 -25 -115
-39 -183 -39 -157 1 -343 -87 -344 -163 l0 -55 -112 13 c-123 14 -155 -6 -136
-85 11 -43 -36 -80 -74 -57 -10 6 -18 3 -18 -8 0 -10 14 -24 30 -30 17 -7 30
-26 30 -42 0 -43 28 -39 115 15 110 68 250 116 323 110 76 -6 32 -56 -49 -56
-112 0 -347 -238 -331 -336 3 -15 -6 -39 -19 -55 -23 -28 -11 -69 22 -69 11 0
19 16 19 36 0 20 16 54 37 76 20 21 53 64 73 95 42 64 192 173 239 173 17 0
49 18 71 40 27 27 67 40 120 40 44 0 96 8 115 19 19 10 52 23 73 30 35 11 36
14 3 50 -32 35 -29 35 48 -3 45 -22 91 -57 102 -78 15 -28 34 -34 79 -25 35 7
60 4 60 -8 0 -11 41 -40 92 -64 66 -31 88 -52 80 -74 -7 -16 -12 -34 -12 -39
0 -4 -14 -8 -31 -8 -44 0 -209 78 -209 98 0 10 -31 18 -69 18 -37 0 -78 6 -89
13 -11 7 -48 -1 -81 -19 -35 -18 -81 -26 -109 -19 -35 9 -89 -9 -186 -61 -227
-124 -301 -216 -308 -385 -5 -112 -78 -105 -78 7 0 25 -9 51 -20 58 -26 16
-26 -349 0 -390 16 -24 19 -22 20 14 0 62 43 148 68 140 32 -11 72 37 72 85 0
22 -11 41 -23 41 -15 0 -11 14 10 35 18 19 51 58 73 85 27 36 39 41 39 19 2
-59 161 -152 161 -94 0 14 6 44 12 68 10 37 1 45 -70 57 -45 7 -82 20 -82 27
0 29 63 103 88 103 23 0 205 -182 195 -195 -11 -14 32 -58 83 -84 92 -47 136
12 73 100 l-45 64 45 34 c31 24 45 56 47 108 1 40 9 73 17 73 8 0 20 18 27 40
24 75 130 36 130 -48 0 -77 -47 -170 -89 -176 -100 -14 -29 -136 80 -136 16 0
29 -11 29 -25 1 -19 5 -19 17 1 9 15 13 49 7 77 -13 71 33 147 90 147 68 0
149 58 137 98 -17 54 17 86 76 71 46 -12 53 -24 53 -91 0 -95 70 -115 92 -28
18 73 -10 265 -40 277 -15 5 -37 51 -49 101 -17 67 -31 88 -53 79 -32 -12 -43
63 -15 104 19 28 91 56 75 29 -7 -11 -3 -20 8 -20 23 0 19 249 -4 272 -8 8
-14 45 -14 83 0 46 -14 80 -42 103 -37 29 -39 39 -15 63 34 36 47 219 15 219
-13 0 -18 17 -12 40 6 22 2 40 -8 40 -10 0 -18 14 -18 30 0 17 -8 30 -17 30
-10 0 -17 20 -15 45 1 32 -11 47 -40 51 -28 4 -49 28 -62 70 l-18 64 -15 -58z
m67 -1185 c0 -24 9 -50 20 -57 36 -22 21 -45 -39 -57 -78 -15 -224 30 -281 87
l-46 46 56 -14 c31 -8 62 -7 68 2 80 107 222 103 222 -7z m-567 -12 c-22 -14
-16 -17 37 -23 20 -3 38 -32 20 -32 -33 -2 -110 27 -110 41 0 50 24 76 50 53
19 -18 19 -28 3 -39z m88 -347 c39 -104 -72 -227 -130 -144 -42 61 -39 82 9
56 51 -28 87 -8 63 34 -20 36 -7 106 20 106 10 0 27 -23 38 -52z"/>
<path d="M4425 5467 c-39 -16 -29 -67 13 -67 28 0 36 10 28 40 -6 22 -12 39
-13 38 -2 0 -14 -6 -28 -11z"/>
<path d="M6340 5451 c0 -16 9 -34 19 -40 11 -7 14 -25 8 -42 -13 -35 24 -39
45 -5 8 13 4 27 -8 31 -13 5 -24 26 -24 47 0 21 -9 38 -20 38 -11 0 -20 -13
-20 -29z"/>
<path d="M1576 5259 c-8 -49 -2 -59 32 -59 31 -1 35 -5 15 -18 -19 -12 -21
-21 -5 -31 22 -14 26 -3 26 69 0 66 -3 75 -32 86 -19 8 -31 -7 -36 -47z"/>
<path d="M4684 5256 c-13 -13 -24 -35 -24 -49 0 -29 -100 -87 -149 -87 -17 0
-31 -8 -31 -18 0 -29 -116 -67 -179 -58 -38 6 -63 -1 -70 -18 -9 -25 11 -34
63 -28 14 2 43 -15 65 -37 45 -45 111 -54 132 -19 8 12 37 17 65 12 82 -16
112 4 73 47 -49 55 -20 112 67 133 81 19 105 68 57 116 -36 36 -39 36 -69 6z"/>
<path d="M4852 5048 c-28 -74 31 -91 64 -18 20 44 18 50 -14 50 -21 0 -43 -14
-50 -32z"/>
<path d="M6285 5045 c-61 -11 -63 -108 -2 -149 38 -25 41 -36 23 -88 -18 -51
-14 -68 26 -119 51 -63 59 -111 29 -166 -10 -21 -11 -47 -1 -64 12 -18 8 -39
-9 -59 -21 -22 -24 -53 -11 -120 9 -49 23 -173 30 -274 13 -183 9 -205 -74
-456 -23 -70 -24 -85 -6 -142 10 -32 3 -45 -26 -53 -40 -10 -42 -96 -2 -146
30 -39 6 -99 -39 -94 -30 3 -43 -7 -43 -31 0 -135 -141 -127 -179 10 -26 96
-27 132 0 115 26 -15 79 26 79 62 0 15 -26 42 -58 61 -89 53 -97 148 -13 148
78 0 111 31 111 105 0 36 19 73 51 101 94 81 110 333 26 417 -20 20 -31 37
-23 37 7 0 -4 13 -25 28 -33 25 -42 23 -74 -13 -38 -45 -39 -45 -71 16 -13 26
-14 52 -1 75 25 45 10 67 -84 115 -44 22 -79 50 -79 63 0 18 -6 18 -23 1 -17
-17 -14 -55 10 -153 18 -72 33 -146 34 -166 0 -20 36 -60 79 -90 114 -79 141
-318 44 -395 -198 -157 -133 -727 83 -733 42 -1 88 10 103 25 15 15 36 27 46
27 83 0 272 390 226 464 -31 49 -29 137 3 125 18 -7 26 23 28 106 4 135 25
469 35 555 4 33 19 143 32 245 19 136 20 207 4 270 -12 47 -26 108 -32 135
-15 73 -171 214 -227 205z"/>
<path d="M6140 4870 c0 -18 -7 -28 -16 -22 -9 5 -32 -17 -51 -49 -20 -32 -48
-59 -64 -59 -79 0 -121 -198 -51 -236 48 -25 81 -8 82 41 0 26 2 32 39 137 20
56 45 108 55 115 30 20 46 81 25 94 -10 6 -19 -3 -19 -21z"/>
<path d="M2460 4845 c-49 -19 -83 -61 -60 -75 11 -7 20 -3 20 9 0 27 74 28 90
1 16 -27 50 -26 50 1 0 21 -50 81 -64 77 -3 0 -19 -6 -36 -13z"/>
<path d="M1860 4791 c0 -29 32 -57 71 -63 12 -2 21 18 21 44 0 37 -11 48 -46
48 -27 0 -46 -12 -46 -29z"/>
<path d="M4330 4600 c-204 -25 -280 -66 -452 -246 -173 -180 -184 -241 -37
-192 95 32 109 49 109 134 0 110 97 121 141 16 73 -176 334 -91 356 115 13
122 69 143 150 56 29 -31 76 -62 104 -69 29 -7 85 -35 125 -63 106 -71 98 -13
-13 101 -154 158 -221 179 -483 148z m-112 -200 c58 -49 63 -61 35 -72 -45
-17 -133 44 -133 92 0 53 17 49 98 -20z"/>
<path d="M1539 4522 c-15 -40 -28 -76 -28 -82 -1 -5 -9 -21 -17 -35 -26 -39
83 8 138 61 61 57 60 65 -9 100 -56 28 -58 27 -84 -44z"/>
<path d="M240 4454 c0 -46 8 -71 20 -64 25 16 25 71 0 110 -14 22 -19 10 -20
-46z"/>
<path d="M1240 4362 c0 -45 8 -82 18 -82 42 0 49 141 7 155 -17 6 -25 -17 -25
-73z"/>
<path d="M4555 4378 c-19 -11 -35 -37 -35 -58 0 -21 -10 -44 -21 -51 -14 -8
-8 -23 15 -40 21 -17 26 -28 11 -28 -30 -1 -34 -41 -4 -41 11 0 25 27 32 60 8
40 24 60 48 60 46 0 74 78 36 102 -34 22 -39 21 -82 -4z"/>
<path d="M327 4260 c-7 -33 -20 -60 -29 -60 -10 0 -18 -38 -17 -85 0 -75 3
-80 24 -45 26 44 25 41 46 165 16 96 -5 118 -24 25z"/>
<path d="M3080 4261 c0 -69 26 -92 59 -52 18 21 17 38 -3 69 -36 58 -56 52
-56 -17z"/>
<path d="M920 4200 c0 -44 9 -80 20 -80 11 0 20 36 20 80 0 44 -9 80 -20 80
-11 0 -20 -36 -20 -80z"/>
<path d="M122 4158 c-1 -29 -8 -96 -15 -150 -7 -54 -6 -92 3 -84 27 25 46 178
29 233 l-16 53 -1 -52z"/>
<path d="M1114 4165 c-4 -8 -10 -91 -12 -185 -3 -93 -14 -175 -25 -182 -19
-12 -13 -142 22 -438 12 -104 16 -114 19 -50 6 130 24 239 44 259 10 10 17 78
15 150 l-4 131 -11 -110 -12 -110 -15 128 c-8 70 -15 145 -15 165 0 47 34 48
46 2 7 -27 10 -25 12 8 1 24 -7 47 -17 50 -10 4 -22 50 -25 102 -6 98 -8 105
-22 80z"/>
<path d="M5012 4069 c-6 -18 -12 -49 -12 -69 0 -27 -17 -39 -63 -44 -57 -5
-108 -76 -55 -76 10 0 18 -18 18 -40 0 -22 -9 -40 -20 -40 -11 0 -20 -13 -20
-30 0 -66 115 9 129 85 13 66 31 89 63 77 37 -14 37 47 0 117 -22 43 -29 47
-40 20z"/>
<path d="M381 4037 c-18 -37 -20 -63 -5 -90 19 -33 22 -32 34 17 22 88 2 138
-29 73z"/>
<path d="M1353 4067 c-29 -29 -11 -107 30 -128 67 -37 102 37 49 106 -28 37
-56 44 -79 22z"/>
<path d="M3750 4029 c-57 -44 -24 -82 151 -173 160 -83 295 -98 362 -41 18 15
83 33 145 39 122 13 145 44 61 83 -62 28 -122 30 -139 4 -14 -24 -125 -5 -184
31 -53 33 -73 36 -56 8 7 -11 0 -20 -14 -20 -15 0 -38 18 -51 40 -23 36 -39
39 -138 27 -83 -10 -109 -7 -99 10 19 30 11 28 -38 -8z"/>
<path d="M5810 3930 c-7 -33 -17 -73 -22 -88 -5 -16 2 -37 16 -47 21 -14 21
-20 1 -28 -32 -13 -33 -49 0 -42 15 3 29 -25 35 -71 18 -135 50 -80 50 86 0
119 -9 172 -33 205 l-34 44 -13 -59z"/>
<path d="M332 3923 c-6 -9 -15 -79 -22 -155 -13 -164 18 -118 40 59 14 105 7
137 -18 96z"/>
<path d="M5220 3892 c0 -56 25 -92 62 -92 43 0 48 24 17 81 -24 45 -79 52 -79
11z"/>
<path d="M3060 3841 c0 -22 -7 -41 -15 -41 -8 0 -16 -105 -18 -232 -1 -128
-10 -238 -20 -245 -41 -30 -57 -163 -19 -163 24 0 32 -20 32 -80 0 -44 -8 -80
-18 -80 -9 0 -22 -18 -28 -40 -6 -26 -21 -36 -40 -29 -32 13 -59 -18 -69 -78
-3 -20 -17 -48 -31 -62 -19 -18 -23 -62 -14 -151 10 -103 6 -133 -23 -168
l-36 -42 0 45 c-1 25 -10 45 -21 45 -26 0 -26 -54 0 -70 24 -15 8 -126 -31
-220 -16 -38 -29 -98 -29 -134 0 -80 -32 -199 -58 -215 -56 -34 -35 -436 23
-445 31 -4 47 -22 51 -56 3 -27 14 -72 25 -100 13 -34 10 -99 -7 -202 -16 -90
-20 -170 -11 -197 13 -33 3 -72 -33 -145 -60 -120 -63 -144 -11 -112 22 14 58
66 81 115 22 50 59 122 80 161 37 64 43 118 41 356 -1 26 -14 60 -31 77 -16
16 -30 39 -30 50 0 11 -18 36 -40 54 -52 43 -68 352 -19 386 20 14 22 23 6 30
-14 5 17 51 75 111 54 55 98 111 97 124 0 12 -15 4 -32 -18 -22 -28 -34 -32
-41 -15 -13 35 -47 31 -80 -10 -26 -31 -28 -24 -17 65 6 55 25 110 41 122 17
12 30 41 30 64 0 23 9 47 20 54 11 7 20 57 20 111 0 87 5 99 42 99 35 0 40 8
29 45 -30 102 -24 155 20 184 115 75 177 354 84 378 -43 11 -43 13 -9 47 35
35 38 34 65 -2 33 -45 109 2 109 67 0 18 17 65 37 105 79 155 67 384 -19 361
-49 -13 -48 -49 2 -80 51 -32 51 -76 1 -119 -21 -18 -34 -41 -29 -50 6 -9 -4
-16 -21 -16 -24 0 -31 23 -31 108 0 72 -10 115 -31 133 -21 17 -27 43 -19 80
7 31 3 61 -9 68 -12 8 -21 -4 -21 -28z"/>
<path d="M2795 3727 c-30 -16 -55 -38 -55 -48 0 -10 -27 -43 -60 -72 -33 -30
-60 -69 -60 -87 0 -49 -20 -61 -59 -36 -27 17 -48 12 -98 -25 l-64 -47 45 -24
c25 -14 53 -20 62 -15 34 22 73 -35 50 -72 -22 -36 -11 -101 18 -101 18 0 106
159 106 191 0 11 16 35 35 53 193 182 246 370 80 283z"/>
<path d="M4717 3698 c-14 -8 -31 -12 -39 -7 -21 13 -39 -46 -25 -82 24 -62
136 -28 143 43 6 63 -24 80 -79 46z"/>
<path d="M2100 3522 c0 -21 -11 -43 -25 -48 -17 -6 -18 -16 -5 -30 33 -35 96
24 80 75 -16 52 -50 54 -50 3z"/>
<path d="M3604 3474 c-31 -85 -30 -95 4 -82 39 15 54 60 36 109 -14 36 -18 33
-40 -27z"/>
<path d="M4580 3482 c0 -25 13 -42 31 -42 19 0 29 14 25 33 -9 51 -56 57 -56
9z"/>
<path d="M1670 3201 c1 -165 19 -228 34 -121 5 34 1 67 -9 73 -10 6 -2 28 16
48 29 33 31 47 9 98 -39 95 -50 73 -50 -98z"/>
<path d="M73 3245 c-7 -41 -3 -83 8 -94 12 -12 19 14 19 75 0 113 -10 121 -27
19z"/>
<path d="M2145 3270 c7 -36 -3 -57 -36 -79 -25 -16 -52 -49 -59 -72 -11 -34
-24 -39 -72 -29 -67 15 -90 -19 -70 -100 14 -55 67 -67 85 -20 6 17 24 30 40
30 15 0 33 14 40 30 6 17 28 30 49 30 21 0 38 14 38 30 0 45 5 58 34 86 30 31
36 133 6 114 -11 -7 -20 -3 -20 9 0 11 -10 21 -22 21 -13 0 -19 -21 -13 -50z"/>
<path d="M3923 3168 c-30 -34 -31 -33 34 -67 59 -31 76 -14 47 49 -26 57 -43
61 -81 18z"/>
<path d="M780 3145 c1 -55 33 -92 68 -79 20 8 27 25 18 48 -24 66 -86 89 -86
31z"/>
<path d="M2371 3125 c-52 -56 -68 -125 -30 -125 12 0 17 7 11 17 -6 9 16 45
49 81 32 35 59 68 59 73 0 25 -44 3 -89 -46z"/>
<path d="M3321 3085 c-11 -41 -21 -91 -21 -110 0 -19 -13 -35 -28 -35 -32 0
-58 -54 -33 -69 9 -6 13 -29 7 -51 -6 -22 -2 -40 9 -40 38 0 125 106 125 152
0 25 8 50 17 56 9 6 18 47 20 91 4 113 -65 117 -96 6z"/>
<path d="M4170 3125 c8 -19 19 -53 25 -75 6 -22 20 -51 30 -65 13 -17 13 -25
-3 -25 -47 0 -19 -79 49 -133 184 -148 491 -481 542 -587 29 -60 72 -149 95
-197 43 -91 107 -137 160 -117 27 11 27 19 2 67 -15 30 -23 62 -18 71 6 9 2
16 -8 16 -11 0 -44 50 -74 111 -30 61 -89 152 -132 201 -43 50 -78 102 -78
116 0 14 -23 37 -51 52 -28 16 -46 39 -40 54 13 35 -51 108 -204 230 -69 55
-125 111 -125 125 0 13 -17 40 -38 59 -23 21 -34 51 -28 78 8 36 5 38 -12 14
-19 -27 -31 -15 -24 25 1 8 -17 15 -40 15 -32 0 -39 -8 -28 -35z"/>
<path d="M2680 2955 c1 -84 34 -105 44 -27 5 50 0 72 -18 72 -14 0 -26 -20
-26 -45z"/>
<path d="M112 2853 c-7 -37 -4 -89 6 -115 16 -39 20 -27 21 67 1 130 -9 147
-27 48z"/>
<path d="M3755 2849 c-119 -81 -108 -161 24 -179 168 -23 249 50 179 163 -50
82 -101 86 -203 16z"/>
<path d="M5754 2874 c-5 -14 1 -52 15 -85 l24 -59 26 49 c20 36 20 51 4 57
-13 4 -23 20 -23 36 0 35 -32 37 -46 2z"/>
<path d="M5926 2603 c3 -174 -4 -266 -20 -286 -15 -18 -17 -39 -5 -58 35 -55
22 -84 -31 -71 -59 15 -67 -29 -26 -142 21 -56 19 -76 -10 -124 -19 -32 -34
-77 -34 -99 0 -23 -14 -49 -30 -58 -30 -17 -49 -153 -25 -177 20 -20 50 9 63
61 7 27 43 102 79 165 54 93 65 131 58 192 -8 60 0 87 35 124 50 53 78 263 46
347 -11 28 -11 99 0 176 16 112 14 134 -17 168 -75 83 -87 54 -83 -218z"/>
<path d="M3425 2810 c-14 -16 -25 -38 -25 -49 0 -12 -20 -21 -45 -22 -39 0
-40 -3 -12 -20 19 -11 45 -53 58 -94 31 -96 55 -125 101 -125 21 0 38 -13 38
-29 0 -34 -62 -57 -107 -39 -45 17 -42 -24 6 -75 25 -28 53 -38 81 -31 73 19
98 -72 46 -167 -60 -111 -17 -128 159 -65 104 37 111 62 29 102 -30 14 -54 40
-54 57 0 17 -27 41 -60 53 -36 14 -60 37 -60 58 0 20 0 42 -1 50 0 7 42 25 95
39 110 29 167 34 134 12 -12 -8 -27 -36 -33 -61 -14 -53 33 -84 70 -47 13 13
36 23 53 23 23 0 22 -6 -6 -26 -66 -48 9 -83 85 -39 66 37 140 17 127 -36 -4
-15 9 -20 35 -13 23 5 46 2 52 -8 29 -46 72 -17 59 40 -14 66 10 91 70 72 26
-8 40 -30 40 -62 0 -35 16 -55 53 -69 117 -45 146 40 45 130 -74 65 -165 96
-195 66 -28 -28 -78 12 -87 68 -7 46 -117 101 -155 77 -19 -11 -17 -28 11 -70
34 -53 34 -56 0 -81 -70 -51 -172 -15 -172 61 0 69 -27 77 -171 48 -142 -28
-149 -26 -157 52 -3 29 -17 61 -31 69 -13 9 -23 42 -21 73 8 115 -6 134 -55
78z"/>
<path d="M3048 2649 c-19 -74 140 -233 207 -208 69 27 56 95 -36 182 -95 90
-153 99 -171 26z"/>
<path d="M5810 2580 c-35 -39 -35 -41 0 -80 53 -59 70 -49 70 40 0 89 -17 99
-70 40z"/>
<path d="M2257 2438 c-7 -102 8 -145 31 -86 18 48 14 164 -6 177 -10 6 -21
-35 -25 -91z"/>
<path d="M1510 2499 c7 -11 13 -78 14 -149 0 -71 8 -125 18 -119 10 6 14 40
10 75 -4 35 -9 98 -10 139 -1 41 -12 75 -23 75 -12 0 -16 -9 -9 -21z"/>
<path d="M43 2430 c-18 -85 -20 -332 -1 -274 11 37 17 118 13 180 -4 63 -9
105 -12 94z"/>
<path d="M4574 2386 c-14 -22 79 -120 97 -102 6 6 -10 36 -37 67 -27 32 -53
47 -60 35z"/>
<path d="M5800 2358 c-23 -16 -24 -24 -5 -31 14 -6 20 -19 14 -29 -18 -29 5
-21 40 14 51 51 11 89 -49 46z"/>
<path d="M3240 2322 c0 -43 -37 -62 -120 -62 -86 0 -122 -48 -108 -140 11 -64
6 -80 -30 -99 -23 -12 -42 -34 -42 -49 0 -57 269 -20 362 50 l48 35 -58 22
c-52 20 -55 25 -24 47 28 21 32 44 21 130 -13 99 -49 147 -49 66z"/>
<path d="M3952 2285 c-35 -35 30 -105 99 -105 57 0 68 55 14 72 -19 6 -50 19
-68 28 -18 10 -38 12 -45 5z"/>
<path d="M5580 2225 c20 -41 32 -83 26 -92 -6 -9 12 -2 41 17 l51 33 -40 44
c-22 24 -47 43 -54 43 -8 0 -25 7 -37 15 -13 9 -7 -18 13 -60z"/>
<path d="M2340 2150 c0 -60 8 -110 17 -110 9 0 16 50 16 110 -1 61 -9 110 -17
110 -9 0 -16 -49 -16 -110z"/>
<path d="M2133 2210 c-19 -50 -16 -170 5 -170 10 0 21 36 26 81 8 89 -11 143
-31 89z"/>
<path d="M219 2098 c-2 -56 -5 -61 -19 -28 -22 51 -22 -2 0 -70 l16 -50 2 50
c2 40 7 44 22 20 13 -20 15 -4 7 50 -16 104 -27 114 -28 28z"/>
<path d="M4566 2082 c-9 -37 -14 -38 -57 -10 -37 25 -55 26 -90 7 -24 -12 -68
-18 -97 -12 -93 18 -226 -9 -237 -49 -6 -23 -36 -40 -87 -48 -43 -8 -78 -22
-78 -33 0 -11 -9 -14 -20 -7 -30 19 -4 50 41 50 22 0 39 8 39 19 0 29 -43 49
-57 26 -7 -11 -51 -32 -98 -46 -47 -14 -85 -37 -85 -51 0 -18 -20 -22 -69 -14
-70 11 -324 -27 -361 -54 -11 -8 -63 -21 -115 -29 -52 -7 -95 -20 -95 -28 0
-8 -40 -35 -90 -59 -49 -24 -91 -55 -93 -69 -2 -14 -4 -38 -6 -55 -1 -16 -20
-64 -40 -105 -37 -71 -37 -76 -2 -114 39 -43 91 -17 91 45 0 48 54 78 131 71
56 -5 81 4 109 38 31 39 81 58 260 99 28 7 56 22 64 33 8 12 60 20 116 17 56
-2 97 4 91 14 -14 24 82 47 131 31 28 -8 38 -2 38 25 1 29 4 31 19 7 13 -21
25 -23 44 -7 39 31 145 49 329 57 104 5 195 22 256 48 105 45 163 52 182 21 7
-12 21 -15 32 -9 10 6 24 -5 32 -24 8 -20 37 -62 65 -93 69 -77 94 -173 72
-274 -15 -66 54 -151 104 -130 20 9 26 18 12 23 -15 6 -17 32 -6 83 43 190
-86 479 -202 454 -54 -12 -61 -6 -104 84 -52 110 -148 149 -169 68z"/>
<path d="M5275 2088 c-27 -26 12 -68 62 -67 43 2 46 5 17 16 -21 8 -36 23 -34
33 4 23 -28 36 -45 18z"/>
<path d="M1864 1667 c-18 -34 -17 -48 7 -68 42 -35 57 -12 34 55 -18 55 -19
55 -41 13z"/>
<path d="M5180 1670 c0 -42 43 -150 60 -150 20 0 63 119 50 140 -17 27 -110
36 -110 10z"/>
<path d="M4277 1650 c-16 -16 -199 -47 -343 -58 -313 -26 -539 -190 -565 -412
l-13 -110 53 75 c29 42 47 85 41 95 -7 11 0 20 15 20 15 0 58 22 95 50 49 36
74 44 92 28 27 -22 108 8 108 39 0 9 101 13 225 10 284 -8 368 4 381 54 9 34
-1 39 -67 39 -42 0 -82 8 -87 17 -18 29 82 123 132 124 44 2 44 3 6 19 -49 21
-61 23 -73 10z"/>
<path d="M5392 1583 c-6 -10 6 -33 26 -52 47 -42 79 -5 35 39 -35 34 -46 37
-61 13z"/>
<path d="M1974 1520 c-11 -44 74 -135 95 -101 8 12 24 15 37 7 14 -8 12 1 -3
20 -16 19 -22 34 -15 34 7 0 5 16 -6 36 -26 48 -96 51 -108 4z"/>
<path d="M5165 1507 c-36 -15 -31 -54 13 -104 31 -37 39 -39 49 -13 10 26 -16
133 -32 128 -3 0 -16 -6 -30 -11z"/>
<path d="M5797 1426 c-23 -55 -24 -89 -6 -143 18 -54 69 19 69 98 0 96 -33
119 -63 45z"/>
<path d="M2092 1365 c9 -19 15 -73 13 -120 -3 -86 25 -115 49 -50 18 47 70 86
101 75 14 -5 25 6 25 24 0 18 -5 27 -12 21 -7 -7 -36 9 -65 36 -63 59 -136 68
-111 14z"/>
<path d="M4791 1342 c-14 -24 8 -82 31 -82 10 0 18 23 18 50 0 49 -27 67 -49
32z"/>
<path d="M5900 1252 c0 -4 15 -42 34 -85 34 -79 60 -167 167 -567 88 -326 102
-398 101 -505 l-1 -95 96 0 96 0 -5 145 c-7 175 -10 195 -31 195 -9 0 -17 36
-17 80 0 44 -8 80 -18 80 -10 0 -28 38 -39 85 -11 47 -26 105 -34 130 -8 27
-5 45 7 45 12 0 27 -18 34 -40 7 -22 21 -40 31 -40 36 0 119 -111 120 -160 0
-46 2 -47 22 -12 21 36 24 36 61 -10 22 -26 34 -38 28 -25 -9 18 0 18 36 0 27
-12 47 -30 45 -40 -1 -10 15 -21 37 -24 21 -4 43 -17 47 -29 11 -34 62 43 62
96 1 51 -258 321 -479 499 -71 57 -180 145 -242 195 -97 77 -158 110 -158 82z"/>
<path d="M2260 1169 c0 -43 8 -66 20 -59 11 7 20 39 20 71 0 33 -9 59 -20 59
-11 0 -20 -32 -20 -71z"/>
<path d="M726 940 c0 -197 2 -223 13 -120 7 72 7 184 0 250 -10 90 -13 57 -13
-130z"/>
<path d="M587 1030 c0 -77 3 -106 8 -65 4 42 4 105 -1 140 -4 36 -8 2 -7 -75z"/>
<path d="M2028 1131 c-7 -16 -6 -39 1 -50 24 -38 51 -22 51 29 0 54 -34 68
-52 21z"/>
<path d="M4074 1127 c-27 -27 -13 -81 32 -124 48 -44 114 -58 114 -23 0 11
-10 20 -21 20 -12 0 -17 16 -11 35 18 58 -74 132 -114 92z"/>
<path d="M2158 1058 c-26 -21 -36 -37 -22 -38 15 0 21 -8 15 -19 -6 -10 9 -21
34 -25 28 -4 47 -22 51 -49 4 -30 24 -45 65 -51 79 -12 89 54 18 125 -22 22
-39 47 -39 57 0 35 -75 36 -122 0z"/>
<path d="M37 1035 c-5 -25 -2 -72 5 -105 11 -49 14 -40 16 45 2 110 -8 137
-21 60z"/>
<path d="M1478 1006 c0 -42 -3 -215 -5 -386 -2 -171 -11 -321 -20 -335 -10
-16 -4 -25 16 -25 25 0 31 30 33 165 1 91 4 271 7 401 2 130 -3 240 -12 246
-9 6 -18 -24 -19 -66z"/>
<path d="M3945 1053 c-25 -13 -45 -39 -45 -58 0 -20 -21 -44 -47 -54 -45 -17
-46 -22 -30 -153 18 -153 29 -171 93 -155 59 16 81 100 35 134 -64 47 -59 176
6 147 69 -30 102 -72 102 -131 1 -28 11 -43 26 -37 14 5 41 -5 60 -22 37 -32
55 -26 62 21 3 16 20 53 39 81 42 65 43 86 2 102 -44 17 -45 17 -52 -33 -5
-37 -18 -44 -72 -42 -87 4 -92 11 -93 121 -1 100 -16 113 -86 79z"/>
<path d="M4287 989 c-13 -34 21 -68 69 -69 40 0 20 88 -21 96 -19 4 -41 -8
-48 -27z"/>
<path d="M853 945 c-17 -83 3 -472 27 -527 20 -45 20 -44 9 10 -6 32 -11 174
-10 315 1 259 -5 303 -26 202z"/>
<path d="M1718 975 c-25 -83 -40 -299 -20 -286 12 7 23 42 23 77 2 51 5 56 17
25 10 -25 15 2 14 75 -2 88 -21 151 -34 109z"/>
<path d="M4480 940 c0 -11 -19 -20 -41 -20 -23 0 -36 -9 -29 -20 7 -11 38 -20
68 -20 31 0 90 -23 131 -50 40 -28 82 -45 92 -39 28 17 23 129 -6 138 -69 21
-215 28 -215 11z"/>
<path d="M3605 805 c5 -41 -1 -90 -12 -109 -26 -41 -16 -53 48 -61 42 -4 50 4
55 60 4 37 -3 65 -15 65 -11 0 -19 7 -17 15 8 29 -27 105 -48 105 -12 0 -17
-31 -11 -75z"/>
<path d="M4380 852 c0 -15 -13 -33 -30 -39 -16 -7 -30 -28 -31 -47 0 -44 -45
-106 -76 -106 -31 0 -29 -25 8 -71 30 -38 31 -38 62 6 18 25 44 45 59 45 53 0
87 127 56 208 -15 39 -48 42 -48 4z"/>
<path d="M60 685 c0 -41 9 -88 20 -105 14 -21 19 0 20 75 0 58 -9 105 -20 105
-11 0 -20 -34 -20 -75z"/>
<path d="M1833 615 c-7 -25 -12 -76 -11 -115 1 -60 37 38 57 155 5 30 -37 -7
-46 -40z"/>
<path d="M1665 610 c-29 -33 -34 -110 -6 -110 10 0 22 -16 27 -35 5 -19 10 -2
12 38 1 41 7 88 14 105 15 39 -13 40 -47 2z"/>
<path d="M2043 559 c-2 -28 -14 -62 -28 -76 -20 -20 -19 -28 5 -43 33 -21 50
42 34 125 -8 41 -9 41 -11 -6z"/>
<path d="M2267 387 c10 -121 21 -159 53 -181 49 -35 52 -99 5 -114 -80 -26
-92 -92 -16 -92 59 0 69 7 75 54 4 38 21 59 56 68 49 14 49 15 7 28 -32 10
-43 30 -44 77 0 35 -14 101 -31 148 -16 47 -24 85 -17 85 7 0 -7 18 -30 40
-67 62 -72 51 -58 -113z"/>
<path d="M501 485 c3 -71 30 -117 45 -77 8 19 5 52 -7 73 -25 48 -39 50 -38 4z"/>
<path d="M101 416 c1 -25 9 -82 18 -126 16 -79 16 -79 19 34 1 62 -7 119 -18
126 -11 7 -19 -8 -19 -34z"/>
<path d="M3605 445 c-35 -12 -31 -85 4 -85 16 0 34 9 41 20 17 28 -15 76 -45
65z"/>
<path d="M4700 360 c0 -11 -16 -21 -35 -21 -30 -2 -29 -4 5 -19 61 -26 70 -23
70 20 0 22 -9 40 -20 40 -11 0 -20 -9 -20 -20z"/>
<path d="M1929 129 c-12 -98 -4 -152 19 -127 21 21 35 238 16 238 -12 0 -27
-50 -35 -111z"/>
<path d="M761 125 c3 -108 36 -143 38 -40 0 52 -8 95 -19 95 -11 0 -19 -25
-19 -55z"/>
</g>
</svg>
